HIERARCHY
ROOT hip
{
  OFFSET 0 0 0
  CHANNELS 6 Xposition Yposition Zposition Zrotation Yrotation Xrotation
  JOINT abdomen
  {
    OFFSET 0 20.6881 -0.73152
    CHANNELS 3 Zrotation Xrotation Yrotation
    JOINT chest
    {
      OFFSET 0 11.7043 -0.48768
      CHANNELS 3 Zrotation Xrotation Yrotation
      JOINT neck
      {
        OFFSET 0 22.1894 -2.19456
        CHANNELS 3 Zrotation Xrotation Yrotation
        JOINT head
        {
          OFFSET -0.24384 7.07133 1.2192
          CHANNELS 3 Zrotation Xrotation Yrotation
          JOINT leftEye
          {
            OFFSET 4.14528 8.04674 8.04672
            CHANNELS 3 Zrotation Xrotation Yrotation
            End Site
            {
              OFFSET 1 0 0
            }
          }
          JOINT rightEye
          {
            OFFSET -3.6576 8.04674 8.04672
            CHANNELS 3 Zrotation Xrotation Yrotation
            End Site
            {
              OFFSET 1 0 0
            }
          }
        }
      }
      JOINT rCollar
      {
        OFFSET -2.68224 19.2634 -4.8768
        CHANNELS 3 Zrotation Xrotation Yrotation
        JOINT rShldr
        {
          OFFSET -8.77824 -1.95073 1.46304
          CHANNELS 3 Zrotation Xrotation Yrotation
          JOINT rForeArm
          {
            OFFSET -28.1742 -1.7115 0.48768
            CHANNELS 3 Zrotation Xrotation Yrotation
            JOINT rHand
            {
              OFFSET -22.5879 0.773209 7.07136
              CHANNELS 3 Zrotation Xrotation Yrotation
              JOINT rThumb1
              {
                OFFSET -1.2192 -0.487915 3.41376
                CHANNELS 3 Zrotation Xrotation Yrotation
                JOINT rThumb2
                {
                  OFFSET -3.37035 -0.52449 3.41376
                  CHANNELS 3 Zrotation Xrotation Yrotation
                  End Site
                  {
                    OFFSET -1.78271 -1.18214 1.43049
                  }
                }
              }
              JOINT rIndex1
              {
                OFFSET -7.75947 0.938293 5.60832
                CHANNELS 3 Zrotation Xrotation Yrotation
                JOINT rIndex2
                {
                  OFFSET -2.54057 -0.884171 1.56538
                  CHANNELS 3 Zrotation Xrotation Yrotation
                  End Site
                  {
                    OFFSET -1.62519 -0.234802 1.16502
                  }
                }
              }
              JOINT rMid1
              {
                OFFSET -8.24714 1.18213 3.41376
                CHANNELS 3 Zrotation Xrotation Yrotation
                JOINT rMid2
                {
                  OFFSET -3.10165 -0.590103 1.0647
                  CHANNELS 3 Zrotation Xrotation Yrotation
                  End Site
                  {
                    OFFSET -2.48547 -0.328903 0.83742
                  }
                }
              }
              JOINT rRing1
              {
                OFFSET -8.82822 0.546677 1.51678
                CHANNELS 3 Zrotation Xrotation Yrotation
                JOINT rRing2
                {
                  OFFSET -2.60934 -0.819778 -0.0198488
                  CHANNELS 3 Zrotation Xrotation Yrotation
                  End Site
                  {
                    OFFSET -2.33842 -0.294052 0.168128
                  }
                }
              }
              JOINT rPinky1
              {
                OFFSET -8.27202 -0.0477905 -0.4584
                CHANNELS 3 Zrotation Xrotation Yrotation
                JOINT rPinky2
                {
                  OFFSET -1.82734 -0.647385 -0.700984
                  CHANNELS 3 Zrotation Xrotation Yrotation
                  End Site
                  {
                    OFFSET -1.69225 -0.51767 -0.607171
                  }
                }
              }
            }
          }
        }
      }
      JOINT lCollar
      {
        OFFSET 2.68224 19.2634 -4.8768
        CHANNELS 3 Zrotation Xrotation Yrotation
        JOINT lShldr
        {
          OFFSET 8.77824 -1.95073 1.46304
          CHANNELS 3 Zrotation Xrotation Yrotation
          JOINT lForeArm
          {
            OFFSET 28.1742 -1.7115 0.48768
            CHANNELS 3 Zrotation Xrotation Yrotation
            JOINT lHand
            {
              OFFSET 22.5879 0.773209 7.07136
              CHANNELS 3 Zrotation Xrotation Yrotation
              JOINT lThumb1
              {
                OFFSET 1.2192 -0.487915 3.41376
                CHANNELS 3 Zrotation Xrotation Yrotation
                JOINT lThumb2
                {
                  OFFSET 3.37035 -0.52449 3.41376
                  CHANNELS 3 Zrotation Xrotation Yrotation
                  End Site
                  {
                    OFFSET 1.78271 -1.18214 1.43049
                  }
                }
              }
              JOINT lIndex1
              {
                OFFSET 7.75947 0.938293 5.60832
                CHANNELS 3 Zrotation Xrotation Yrotation
                JOINT lIndex2
                {
                  OFFSET 2.54057 -0.884171 1.56538
                  CHANNELS 3 Zrotation Xrotation Yrotation
                  End Site
                  {
                    OFFSET 1.62519 -0.234802 1.16502
                  }
                }
              }
              JOINT lMid1
              {
                OFFSET 8.24714 1.18213 3.41376
                CHANNELS 3 Zrotation Xrotation Yrotation
                JOINT lMid2
                {
                  OFFSET 3.10165 -0.590103 1.0647
                  CHANNELS 3 Zrotation Xrotation Yrotation
                  End Site
                  {
                    OFFSET 2.48547 -0.328903 0.83742
                  }
                }
              }
              JOINT lRing1
              {
                OFFSET 8.82822 0.546677 1.51678
                CHANNELS 3 Zrotation Xrotation Yrotation
                JOINT lRing2
                {
                  OFFSET 2.60934 -0.819778 -0.0198488
                  CHANNELS 3 Zrotation Xrotation Yrotation
                  End Site
                  {
                    OFFSET 2.33842 -0.294052 0.168128
                  }
                }
              }
              JOINT lPinky1
              {
                OFFSET 8.27202 -0.0477905 -0.4584
                CHANNELS 3 Zrotation Xrotation Yrotation
                JOINT lPinky2
                {
                  OFFSET 1.82734 -0.647385 -0.700984
                  CHANNELS 3 Zrotation Xrotation Yrotation
                  End Site
                  {
                    OFFSET 1.69225 -0.51767 -0.607171
                  }
                }
              }
            }
          }
        }
      }
    }
  }
  JOINT rButtock
  {
    OFFSET -8.77824 4.35084 1.2192
    CHANNELS 3 Zrotation Xrotation Yrotation
    JOINT rThigh
    {
      OFFSET 0 -1.70687 -2.19456
      CHANNELS 3 Zrotation Xrotation Yrotation
      JOINT rShin
      {
        OFFSET 0 -36.8199 0.73152
        CHANNELS 3 Zrotation Xrotation Yrotation
        JOINT rFoot
        {
          OFFSET 0.73152 -45.1104 -5.12064
          CHANNELS 3 Zrotation Xrotation Yrotation
          End Site
          {
            OFFSET -1.1221 -3.69964 12.103
          }
        }
      }
    }
  }
  JOINT lButtock
  {
    OFFSET 8.77824 4.35084 1.2192
    CHANNELS 3 Zrotation Xrotation Yrotation
    JOINT lThigh
    {
      OFFSET 0 -1.70687 -2.19456
      CHANNELS 3 Zrotation Xrotation Yrotation
      JOINT lShin
      {
        OFFSET 0 -36.8199 0.73152
        CHANNELS 3 Zrotation Xrotation Yrotation
        JOINT lFoot
        {
          OFFSET -0.73152 -45.1104 -5.12064
          CHANNELS 3 Zrotation Xrotation Yrotation
          End Site
          {
            OFFSET 1.1221 -3.69964 12.103
          }
        }
      }
    }
  }
}
MOTION
Frames:	7
Frame Time:	0.00833333
-4.06825 84.2564 38.929 0.0 0.0 0.0 -1.24152 -0.00398117 -0.034079 -0.342495 -0.00249257 -0.0593274 1.29988e-17 -1.59028e-15 3.72721e-16 -6.74004e-16 3.18055e-15 1.08089e-15 -0.0 0.0 0.0 -0.0 0.0 0.0 -1.50729e-16 -5.41611e-17 2.98177e-16 -4.02617e-16 -1.38528e-15 4.96962e-15 -6.30644e-14 -2.82274e-14 4.45278e-14 -6.78756e-13 -2.38889e-13 7.60153e-13 -1.61536e-12 -5.78884e-13 1.74294e-12 -2.7965e-12 -9.98694e-13 3.00165e-12 -1.61135e-12 -5.75283e-13 1.7334e-12 7.73091 5.47488 0.417314 -1.61448e-12 -5.78762e-13 1.74612e-12 2.90554 0.965183 0.102902 -1.6018e-12 -5.78364e-13 1.74135e-12 10.2786 0.731801 0.0259123 -1.6193e-12 -5.78066e-13 1.74612e-12 2.22167 -0.733487 -0.20892 -4.80484e-17 -5.62964e-17 9.93923e-17 -5.9517e-15 -8.75895e-16 2.78299e-15 -5.36222e-14 -5.66536e-14 8.90555e-14 -6.71774e-13 -1.98163e-13 7.15625e-13 -1.57926e-12 -5.5698e-13 1.74294e-12 -2.72772e-12 -9.60528e-13 3.02073e-12 -1.58511e-12 -5.53814e-13 1.75249e-12 -7.73091 5.47488 -0.417314 -1.58193e-12 -5.56001e-13 1.74612e-12 -2.90554 0.965183 -0.102902 -1.58589e-12 -5.561e-13 1.74612e-12 -10.2786 0.731801 -0.0259123 -1.57517e-12 -5.55802e-13 1.73658e-12 -2.22167 -0.733487 0.20892 -2.03217e-16 0.0 -3.88251e-19 -0.453762 -1.92099 -0.00952841 -0.00915617 -2.07857 -0.0755572 -0.487535 3.99699 0.136665 2.03217e-16 0.0 3.88251e-19 -1.4372 -5.97116 0.129659 -0.00126473 5.25797 -0.0454183 0.507744 0.710737 -0.0722654
-4.9529 84.5624 39.316 -3.4342 -1.4519 -5.356 0.0402968 1.70941 0.528925 -0.55226 -0.760999 0.127597 0.248518 1.71199 -0.391935 0.446228 -0.801513 -0.806072 -0.0 0.0 0.0 -0.0 0.0 0.0 9.35499e-15 -2.15458e-16 1.11067e-14 24.0061 4.82349 -4.94153 -6.57805 -3.67866 9.41498 0.0147825 2.6975 0.377593 -5.32811e-11 1.44111e-10 -3.06358e-11 -9.21931e-11 2.49344e-10 -5.26218e-11 -5.32774e-11 1.44115e-10 -3.065e-11 7.73091 5.47488 0.417314 -5.32805e-11 1.44111e-10 -3.06335e-11 2.90554 0.965183 0.102902 -5.32705e-11 1.44111e-10 -3.06372e-11 10.2786 0.731801 0.0259123 -5.32842e-11 1.44111e-10 -3.06298e-11 2.22167 -0.733487 -0.20892 9.44943e-15 -2.18779e-16 1.09068e-14 -23.4506 5.93362 2.37974 5.57852 -2.88057 -8.30476 -0.0130238 2.53197 -0.354591 -5.89349e-11 -8.37112e-13 3.38189e-11 -1.01454e-10 -6.61109e-13 5.91195e-11 -5.8943e-11 -8.35928e-13 3.38301e-11 -7.73091 5.47488 -0.417314 -5.89399e-11 -8.38835e-13 3.38212e-11 -2.90554 0.965183 -0.102902 -5.89452e-11 -8.3911e-13 3.38211e-11 -10.2786 0.731801 -0.0259123 -5.8932e-11 -8.37506e-13 3.38143e-11 -2.22167 -0.733487 0.20892 -2.03217e-16 0.0 -3.88251e-19 -1.03138 1.99457 0.194292 -0.00442967 -1.39583 -0.0440312 -0.554819 -0.958172 -2.62367 2.03217e-16 0.0 3.88251e-19 1.41164 -5.22948 -1.42487 -0.00971251 10.6845 -0.173475 0.805893 -4.39381 2.88509
-4.95635 84.5625 39.3165 -3.454 -1.4476 -5.359 1.35955 3.51998 1.12551 -0.7686 -1.5624 0.325236 0.540754 3.52485 -0.807471 0.886757 -1.65465 -1.65952 -0.0 0.0 0.0 -0.0 0.0 0.0 2.12274e-14 1.89159e-15 2.34224e-14 50.2972 9.80162 -10.2817 -12.2341 -7.23638 19.4898 -0.00841209 5.54777 0.779415 -1.26029e-10 3.30683e-10 -7.62524e-11 -2.18113e-10 5.72159e-10 -1.30959e-10 -1.26026e-10 3.30689e-10 -7.62717e-11 7.73091 5.47488 0.417314 -1.26029e-10 3.30684e-10 -7.62512e-11 2.90554 0.965183 0.102902 -1.26022e-10 3.30684e-10 -7.62536e-11 10.2786 0.731801 0.0259123 -1.26031e-10 3.30683e-10 -7.62433e-11 2.22167 -0.733487 -0.20892 2.1314e-14 1.8869e-15 2.32205e-14 -48.7883 12.1726 4.98139 10.5771 -5.72367 -17.15 0.00740675 5.20581 -0.731403 -1.37828e-10 -1.08478e-11 6.74156e-11 -2.37368e-10 -1.70545e-11 1.18058e-10 -1.37838e-10 -1.08488e-11 6.74288e-11 -7.73091 5.47488 -0.417314 -1.37835e-10 -1.08524e-11 6.7417e-11 -2.90554 0.965183 -0.102902 -1.37842e-10 -1.0853e-11 6.74168e-11 -10.2786 0.731801 -0.0259123 -1.37826e-10 -1.08499e-11 6.7413e-11 -2.22167 -0.733487 0.20892 -2.03217e-16 0.0 -3.88251e-19 -1.67203 6.13345 0.413817 -0.000250146 -0.674124 -0.0107314 -1.14654 -6.16952 -5.57302 2.03217e-16 0.0 3.88251e-19 4.4669 -4.4417 -3.06593 0.00880908 16.421 -0.315866 1.70129 -9.74833 6.0846
-4.95702 84.5612 39.3143 -3.4628 -1.4371 -5.3494 2.50258 5.13426 1.66089 -0.956934 -2.27793 0.501809 0.816055 5.13499 -1.18002 1.271 -2.40263 -2.42011 -0.0 0.0 0.0 -0.0 0.0 0.0 2.83664e-14 -5.38052e-16 3.27238e-14 74.5479 14.0341 -15.2373 -16.2264 -9.84561 28.6462 -0.0632212 8.0911 1.1429 -1.56613e-10 4.33489e-10 -9.53932e-11 -2.70986e-10 7.50029e-10 -1.63869e-10 -1.5661e-10 4.33495e-10 -9.54167e-11 7.73091 5.47488 0.417314 -1.56613e-10 4.33491e-10 -9.53929e-11 2.90554 0.965183 0.102902 -1.56608e-10 4.3349e-10 -9.53942e-11 10.2786 0.731801 0.0259123 -1.56614e-10 4.33489e-10 -9.53815e-11 2.22167 -0.733487 -0.20892 2.84444e-14 -5.43746e-16 3.25215e-14 -71.8884 17.6749 7.45472 14.2983 -7.91697 -25.1386 0.0556503 7.59475 -1.07214 -1.73646e-10 -1.39738e-12 9.79707e-11 -2.98907e-10 -6.22766e-14 1.71317e-10 -1.73659e-10 -1.40016e-12 9.79855e-11 -7.73091 5.47488 -0.417314 -1.73656e-10 -1.4045e-12 9.79713e-11 -2.90554 0.965183 -0.102902 -1.73664e-10 -1.40513e-12 9.7971e-11 -10.2786 0.731801 -0.0259123 -1.73646e-10 -1.40091e-12 9.79698e-11 -2.22167 -0.733487 0.20892 -2.03217e-16 0.0 -3.88251e-19 -2.27115 9.82518 0.610523 0.00277016 -0.0303309 0.0189605 -2.1349 -10.7606 -8.28932 2.03217e-16 0.0 3.88251e-19 7.23033 -3.73926 -4.52437 0.0513627 21.5371 -0.452546 3.01894 -14.4447 9.06314
-4.95712 84.5602 39.3119 -3.475 -1.4129 -5.3396 3.27659 6.25969 2.03758 -1.08572 -2.77886 0.625361 0.998945 6.23924 -1.44104 1.56326 -2.88961 -2.94668 -0.0 0.0 0.0 -0.0 0.0 0.0 2.36722e-14 -1.43094e-14 3.44891e-14 91.8996 16.8183 -18.8374 -18.4874 -11.2205 35.123 -0.120952 9.86843 1.40094 -8.17848e-11 3.26878e-10 -4.83444e-11 -1.41245e-10 5.65534e-10 -8.32081e-11 -8.17824e-11 3.26885e-10 -4.83699e-11 7.73091 5.47488 0.417314 -8.17854e-11 3.2688e-10 -4.83444e-11 2.90554 0.965183 0.102902 -8.1782e-11 3.26879e-10 -4.83452e-11 10.2786 0.731801 0.0259123 -8.17862e-11 3.26878e-10 -4.83317e-11 2.22167 -0.733487 -0.20892 2.37396e-14 -1.43152e-14 3.42904e-14 -88.289 21.4555 9.30715 16.5168 -9.17641 -30.7715 0.106628 9.27256 -1.31479 -1.01779e-10 5.67061e-11 1.20922e-10 -1.74508e-10 1.00394e-10 2.10379e-10 -1.01792e-10 5.67021e-11 1.20937e-10 -7.73091 5.47488 -0.417314 -1.01791e-10 5.66972e-11 1.20922e-10 -2.90554 0.965183 -0.102902 -1.01798e-10 5.6697e-11 1.20922e-10 -10.2786 0.731801 -0.0259123 -1.01779e-10 5.67017e-11 1.20922e-10 -2.22167 -0.733487 0.20892 -2.03217e-16 0.0 -3.88251e-19 -2.70514 12.3996 0.741093 0.0044813 0.418688 0.0396615 -3.08997 -13.9112 -10.26 2.03217e-16 0.0 3.88251e-19 9.17849 -3.25341 -5.53221 0.0971946 25.1025 -0.554968 4.23529 -17.6488 11.2326
-4.95574 84.5594 39.3107 -3.4823 -1.3849 -5.344 3.5642 6.70388 2.18765 -1.13585 -2.97922 0.674325 1.02341 6.63242 -1.54112 1.76019 -3.00813 -3.1392 -0.0 0.0 0.0 -0.0 0.0 0.0 -3.19967e-15 -4.74255e-14 2.35273e-14 98.7788 17.8725 -20.2759 -19.2664 -11.6363 37.6637 -0.148454 10.5804 1.50542 2.05168e-10 -1.76196e-10 1.1762e-10 3.55947e-10 -3.04946e-10 2.01213e-10 2.0517e-10 -1.76191e-10 1.17596e-10 7.73091 5.47488 0.417314 2.05167e-10 -1.76195e-10 1.17621e-10 2.90554 0.965183 0.102902 2.0517e-10 -1.76196e-10 1.1762e-10 10.2786 0.731801 0.0259123 2.05166e-10 -1.76196e-10 1.17632e-10 2.22167 -0.733487 -0.20892 -3.14532e-15 -4.743e-14 2.33374e-14 -94.7716 22.9187 10.068 17.3103 -9.59898 -32.9932 0.131203 9.95513 -1.41444 1.63133e-10 2.11267e-10 1.49784e-10 2.83338e-10 3.66567e-10 2.57836e-10 1.63122e-10 2.11262e-10 1.49801e-10 -7.73091 5.47488 -0.417314 1.63121e-10 2.11257e-10 1.49784e-10 -2.90554 0.965183 -0.102902 1.63117e-10 2.11258e-10 1.49785e-10 -10.2786 0.731801 -0.0259123 1.63135e-10 2.11262e-10 1.49784e-10 -2.22167 -0.733487 0.20892 -2.03217e-16 0.0 -3.88251e-19 -2.88266 13.4119 0.77139 0.00506466 0.595053 0.0477836 -3.52534 -15.129 -11.0545 2.03217e-16 0.0 3.88251e-19 9.94603 -3.06901 -5.90669 0.119192 26.4968 -0.595419 4.76514 -18.8749 12.0788
-4.94866 84.5585 39.3112 -3.4677 -1.3465 -5.3425 3.51201 6.66176 2.17469 -1.13089 -2.96493 0.669941 0.929966 6.51805 -1.52556 1.89281 -2.86401 -3.09304 -0.0 0.0 0.0 -0.0 0.0 0.0 -4.56454e-14 -9.41942e-14 3.57812e-15 97.9868 17.7787 -20.098 -19.1742 -11.5837 37.36 -0.146116 10.5314 1.49817 6.40566e-10 -9.5754e-10 3.67275e-10 1.11028e-09 -1.65691e-09 6.29045e-10 6.40566e-10 -9.57537e-10 3.67255e-10 7.73091 5.47488 0.417314 6.40563e-10 -9.5754e-10 3.67276e-10 2.90554 0.965183 0.102902 6.40568e-10 -9.5754e-10 3.67275e-10 10.2786 0.731801 0.0259123 6.40563e-10 -9.5754e-10 3.67283e-10 2.22167 -0.733487 -0.20892 -4.5606e-14 -9.41965e-14 3.40108e-15 -94.0348 22.7533 9.98207 17.2278 -9.55767 -32.7542 0.129613 9.92709 -1.41027 5.63922e-10 4.33376e-10 1.82081e-10 9.75877e-10 7.48783e-10 3.09944e-10 5.63913e-10 4.33371e-10 1.82098e-10 -7.73091 5.47488 -0.417314 5.63908e-10 4.33365e-10 1.82081e-10 -2.90554 0.965183 -0.102902 5.6391e-10 4.33368e-10 1.82083e-10 -10.2786 0.731801 -0.0259123 5.63925e-10 4.33371e-10 1.82081e-10 -2.22167 -0.733487 0.20892 -2.03217e-16 0.0 -3.88251e-19 -2.87086 13.3085 0.728133 0.00500616 0.576664 0.0469183 -3.47515 -14.992 -10.9677 2.03217e-16 0.0 3.88251e-19 9.8618 -3.09974 -5.8293 0.116955 26.3404 -0.587598 4.67411 -18.7213 11.9254
